<?xml version="1.0" standalone="no"?> <!DOCTYPE svg PUBLIC "-//W3C//DTD SVG 1.0//EN" "http://www.w3.org/TR/2001/REC-SVG-20010904/DTD/svg10.dtd" > <svg xmlns="http://www.w3.org/2000/svg" width="100%" height="100%">
<defs >
<font id="pragmaticac" horiz-adv-x="923" ><font-face
    font-family="PragmaticaC"
    units-per-em="2048"
    panose-1="4 0 6 0 0 0 0 0 0 0"
    ascent="1433"
    descent="-379"
    alphabetic="0" />
<missing-glyph horiz-adv-x="477" />
<glyph unicode=" " glyph-name="space" horiz-adv-x="477" />
<glyph unicode="!" glyph-name="exclam" horiz-adv-x="636" d="M217 1434H420V883L369 412H268L217 883V1434ZM217 0V223H420V0H217Z" />
<glyph unicode="&quot;" glyph-name="quotedbl" horiz-adv-x="860" d="M373 1434L291 1040H184L102 1434H373ZM758 1434L676 1040H569L487 1434H758Z" />
<glyph unicode="#" glyph-name="numbersign" horiz-adv-x="1435" d="M895 20H756L809 365H516L463 20H324L377 365H102L129 539H403L461 905H186L213 1079H487L541 1421H680L627 1079H920L973 1421H1112L1059 1079H1333L1307 905H1032L975 539H1249L1223 365H948L895
20ZM836 539L893 905H600L543 539H836Z" />
<glyph unicode="$" glyph-name="dollar" horiz-adv-x="1251" d="M109 426H291Q294 355 315 300T365 212T434 157T509 127T582 117V662Q470 686 389 720T262 791T188 877T153 969T145 1071Q145 1165 175 1237T252 1350T359 1416T474 1450T582 1458V1591H690V1458Q724
1457 758 1453T835 1436T913 1406T985 1359T1045 1292T1084 1202T1096 1085H920Q918 1180 854 1251T690 1323V817Q775 803 844 779T959 727T1040 664T1094 596T1124 525T1139 457T1143 393Q1143 319 1125 258T1078 155T1008 81T926 30T840 -1T759 -18T690 -25V-190H582V-25Q354
-15 238 93T109 426ZM690 643V117Q814 114 887 196T961 393Q961 447 943 489T896 558T830 603T758 630T690 643ZM582 836V1323Q551 1322 521 1317T454 1296T389 1254T343 1183T324 1077Q324 977 387 919T582 836Z" />
<glyph unicode="%" glyph-name="percent" horiz-adv-x="1865" d="M399 0L1329 1434H1475L545 0H399ZM109 1040Q109 1136 133 1211T194 1330T278 1402T366 1440T444 1450Q482 1450 522 1441T609 1403T694 1331T755 1212T780 1040Q780 991 772 941T741 833T682 733T585
660T444 631Q366 631 305 660T208 732T149 833T117 940T109 1040ZM240 1040Q240 1006 244 972T261 894T295 818T354 762T444 739T534 762T594 817T628 894T645 972T649 1040Q649 1108 636 1162T601 1249T552 1303T497 1333T444 1341Q410 1341 377 1327T312 1281T260
1187T240 1040ZM1085 393Q1085 489 1110 564T1171 683T1255 755T1343 793T1421 803Q1459 803 1499 794T1586 756T1671 684T1732 565T1757 393Q1757 344 1749 294T1718 186T1659 86T1562 13T1421 -16Q1343 -16 1282 13T1184 85T1125 186T1093 293T1085 393ZM1217
393Q1217 359 1221 325T1238 247T1272 171T1331 115T1421 92Q1483 92 1527 124T1591 209T1618 305T1626 393Q1626 461 1613 515T1578 602T1529 656T1474 686T1421 694Q1387 694 1354 680T1289 634T1237 540T1217 393Z" />
<glyph unicode="&amp;" glyph-name="ampersand" horiz-adv-x="1398" d="M1110 627H1272Q1254 519 1229 443T1153 291L1399 0H1184L1042 168Q975 64 854 11T598 -43Q480 -43 390 -5T249 96T172 231T147 383Q147 540 234 644T500 829Q358 993 358 1139Q358 1276
453 1355T692 1434Q840 1434 923 1349T1006 1145Q1006 1080 982 1022T916 919T830 844T737 788L1051 416Q1088 480 1110 627ZM948 285L594 713Q334 607 334 385Q334 347 344 309T377 235T433 172T515 128T623 111Q726 111 812 156T948 285ZM649 897Q733 926 787
993T842 1149Q842 1210 799 1254T690 1298Q626 1298 576 1259T526 1143Q526 1100 545 1055T581 984T638 911Q645 902 649 897Z" />
<glyph unicode="&apos;" glyph-name="quotesingle" horiz-adv-x="475" d="M373 1434L291 1040H184L102 1434H373Z" />
<glyph unicode="(" glyph-name="parenleft" horiz-adv-x="747" d="M442 1434H578Q328 951 328 528Q328 312 397 74T578 -377H442Q265 -76 205 120T145 528Q145 741 205 937T442 1434Z" />
<glyph unicode=")" glyph-name="parenright" horiz-adv-x="747" d="M305 -377H170Q420 105 420 528Q420 954 170 1434H305Q400 1282 463 1145T554 893T592 698T602 528T592 358T554 163T463 -88T305 -377Z" />
<glyph unicode="*" glyph-name="asterisk" horiz-adv-x="952" d="M477 1047L313 825L231 887L391 1108L135 1190L168 1286L426 1204V1475H528V1204L784 1286L817 1190L563 1108L723 887L639 825L477 1047Z" />
<glyph unicode="+" glyph-name="plus" horiz-adv-x="1228" d="M102 791H551V1239H678V791H1126V664H678V215H551V664H102V791Z" />
<glyph unicode="," glyph-name="comma" horiz-adv-x="636" d="M217 223H420V-63Q420 -111 407 -150T372 -214T323 -258T269 -287T217 -303V-190Q260 -186 289 -149T319 -63V0H217V223Z" />
<glyph unicode="-" glyph-name="hyphen" horiz-adv-x="864" d="M162 461V635H702V461H162Z" />
<glyph unicode="." glyph-name="period" horiz-adv-x="636" d="M217 0V223H420V0H217Z" />
<glyph unicode="/" glyph-name="slash" horiz-adv-x="860" d="M0 -379L731 1434H860L129 -379H0Z" />
<glyph unicode="0" glyph-name="zero" horiz-adv-x="1187" d="M594 -43Q570 -43 548 -42T488 -32T416 -10T341 32T266 97T199 193T143 324T106 497T92 717T106 936T142 1109T198 1240T265 1336T341 1402T416 1443T487 1465T548 1475T594 1477Q626 1477 656 1474T739
1455T837 1410T931 1325T1015 1190T1073 990T1096 717T1073 444T1016 245T931 110T837 24T740 -20T656 -40T594 -43ZM510 119T594 119T739 165T836 296T888 485T905 717Q905 844 889 948T837 1137T740 1268T594 1315T448 1268T351 1137T300 949T283 717Q283 589
299 485T351 297T448 166Z" />
<glyph unicode="1" glyph-name="one" horiz-adv-x="1187" d="M266 1077V1178H309Q441 1178 538 1248T651 1434H786V0H594V1077H266Z" />
<glyph unicode="2" glyph-name="two" horiz-adv-x="1187" d="M1087 162V0H117Q116 228 248 383Q327 475 505 591Q535 611 602 653Q607 656 638 676T679 702T717 728T757 759T792 792T827 831T853 873T877 923T889 977T895 1040Q895 1172 817 1243T606 1315Q470
1315 390 1237T309 1030V977H121V1020Q121 1052 125 1086T142 1166T177 1254T236 1337T323 1409T447 1458T612 1477Q834 1477 963 1362T1092 1042Q1092 879 1018 776Q957 692 799 584Q746 548 631 475Q486 384 418 313T330 162H1087Z" />
<glyph unicode="3" glyph-name="three" horiz-adv-x="1187" d="M82 436H266Q267 431 269 415T272 389Q276 367 279 352T292 305T315 251T351 200T403 154T475 124T571 111Q642 111 698 126T788 169T845 227T878 295T893 359T897 414Q897 532 826 602T635 672H487V827H545Q566
827 582 827T633 833T694 847T753 874T807 918T843 983T858 1075Q858 1111 851 1144T823 1210T773 1268T691 1308T575 1323Q555 1323 538 1322T491 1313T437 1294T385 1258T339 1200T309 1115T297 997H119Q118 1030 120 1063T133 1146T162 1238T215 1326T297 1404T418
1456T582 1477Q695 1477 781 1446T914 1372T990 1270T1027 1168T1036 1083Q1036 967 971 882T801 766V762Q917 745 997 650T1077 399Q1077 193 940 75T584 -43Q464 -43 373 -11T228 69T142 185T96 312T82 436Z" />
<glyph unicode="4" glyph-name="four" horiz-adv-x="1187" d="M723 332H47V494L721 1434H915V494H1141V332H915V0H723V332ZM231 494H723V1182L231 494Z" />
<glyph unicode="5" glyph-name="five" horiz-adv-x="1187" d="M94 367H283Q287 335 296 304T328 236T381 174T463 129T578 111Q604 111 627 113T685 123T749 144T809 185T862 248T897 340T911 465Q911 556 885 624T812 730T712 785T596 803Q518 803 434 770T315
678H135L236 1434H1010V1272H377L319 848Q445 956 643 956Q844 956 968 825T1092 467Q1092 357 1061 266T969 105T808 -4T578 -43Q472 -43 388 -16T252 54T166 153T115 262T94 367Z" />
<glyph unicode="6" glyph-name="six" horiz-adv-x="1187" d="M1075 1118H903Q856 1323 629 1323Q557 1323 500 1300T405 1235T343 1143T304 1030T286 911T281 793H285Q345 871 437 907T635 944Q837 944 966 815T1096 463Q1096 236 965 97T604 -43Q480 -43 390
-8T230 111T125 340T90 698Q90 822 105 926T143 1105T202 1240T273 1338T353 1404T434 1445T512 1466T578 1475T631 1477Q655 1477 678 1476T743 1467T820 1446T899 1405T974 1342T1034 1247T1075 1118ZM293 459Q293 391 312 330T370 219T470 140T612 111Q688 111
747 140T841 221T893 333T911 465Q911 605 833 698T608 791Q460 791 377 700T293 459Z" />
<glyph unicode="7" glyph-name="seven" horiz-adv-x="1187" d="M70 1272V1434H1116V1303Q979 1150 888 1000T719 659Q653 496 618 348T561 0H356Q401 343 528 643Q597 805 700 971T928 1272H70Z" />
<glyph unicode="8" glyph-name="eight" horiz-adv-x="1187" d="M371 776Q275 810 220 898T164 1092Q164 1141 175 1189T216 1291T292 1385T417 1451T594 1477T771 1451T895 1385T972 1292T1013 1190T1024 1092Q1024 986 969 898T817 776Q936 745 1006 640T1077
406Q1077 312 1048 232T961 90T809 -8T594 -43T379 -8T228 89T141 232T111 406Q111 534 181 639T371 776ZM464 844T594 844T786 911T848 1085Q848 1112 844 1139T823 1200T780 1261T706 1305T594 1323T483 1305T408 1261T366 1201T345 1139T340 1085Q340 979 402
912ZM540 111T594 111T699 129T795 182T866 278T893 416Q893 465 879 510T834 599T740 669T594 696Q526 696 472 678T386 632T332 566T303 492T295 416Q295 339 322 279T393 183T488 129Z" />
<glyph unicode="9" glyph-name="nine" horiz-adv-x="1187" d="M111 315H283Q330 111 557 111Q629 111 686 134T781 199T843 291T882 404T900 523T905 641H901Q841 562 749 526T551 489Q349 489 220 618T90 971Q90 1198 221 1337T582 1477Q640 1477 688 1471T790
1444T887 1391T970 1302T1037 1169T1080 982T1096 735Q1096 -43 555 -43Q530 -43 508 -42T443 -33T366 -12T287 28T212 91T152 186T111 315ZM893 975Q893 1044 874 1105T816 1215T716 1294T573 1323Q497 1323 438 1294T344 1213T292 1101T274 969Q274 829 353 736T578
643Q726 643 809 734T893 975Z" />
<glyph unicode=":" glyph-name="colon" horiz-adv-x="636" d="M217 817V1040H420V817H217ZM217 0V223H420V0H217Z" />
<glyph unicode=";" glyph-name="semicolon" horiz-adv-x="636" d="M217 817V1040H420V817H217ZM217 223H420V-63Q420 -111 407 -150T372 -214T323 -258T269 -287T217 -303V-190Q260 -186 289 -149T319 -63V0H217V223Z" />
<glyph unicode="&lt;" glyph-name="less" horiz-adv-x="1370" d="M123 750L1137 1333L1198 1223L279 700L1198 178L1137 68L123 651V750Z" />
<glyph unicode="=" glyph-name="equal" horiz-adv-x="1228" d="M102 975H1126V848H102V975ZM102 565H1126V438H102V565Z" />
<glyph unicode="&gt;" glyph-name="greater" horiz-adv-x="1370" d="M1247 651L233 68L172 178L1092 700L172 1223L233 1333L1247 750V651Z" />
<glyph unicode="?" glyph-name="question" horiz-adv-x="1122" d="M451 0V223H653V0H451ZM287 1001H109Q106 1076 117 1140T159 1267T242 1372T376 1441T569 1468Q773 1468 893 1371T1014 1098Q1014 984 966 906T803 731Q758 693 738 674T686 619T642 544T629
459V416H479Q462 610 571 727Q597 754 655 805T746 888T807 976T836 1090Q836 1119 829 1148T802 1209T753 1265T676 1305T567 1321Q545 1321 526 1320T476 1311T421 1292T369 1255T325 1199T296 1115T287 1001Z" />
<glyph unicode="@" glyph-name="at" horiz-adv-x="1767" d="M1204 168L1264 59Q1171 5 1081 -19T883 -43Q724 -43 587 7T346 152T183 392T123 719Q123 939 225 1113T500 1382T883 1477Q1034 1477 1160 1439T1375 1333T1525 1175T1616 979T1645 760Q1645 695 1630
630T1583 506T1508 401T1403 328T1272 301Q1136 301 1090 399Q1032 289 840 289Q677 289 581 399T485 692Q485 865 576 980T825 1096Q996 1096 1067 983H1073V1067H1229V551Q1229 478 1249 455T1307 432Q1377 432 1426 485T1496 609T1516 760Q1516 902 1467 1017T1331
1207T1130 1322T883 1362Q741 1362 621 1309T421 1167T297 961T252 719Q252 588 289 479T388 297T532 172T703 97T883 74Q1060 74 1204 168ZM1059 690Q1059 815 1010 888T862 961Q758 961 708 885T657 690Q657 643 666 600T696 515T759 448T860 422T961 448T1023
517T1051 602T1059 690Z" />
<glyph unicode="A" glyph-name="A" horiz-adv-x="1273" d="M334 371L199 0H-8L535 1434H739L1282 0H1075L940 371H334ZM387 532H887L637 1239L387 532Z" />
<glyph unicode="B" glyph-name="B" horiz-adv-x="1411" d="M174 1434H803Q903 1434 980 1412T1104 1355T1180 1270T1220 1172T1231 1069Q1231 954 1162 867T991 762V756Q1031 749 1068 736T1148 695T1220 630T1271 532T1292 399Q1292 0 780 0H174V1434ZM367 1272V825H754Q902
825 968 887T1034 1049Q1034 1077 1029 1103T1007 1162T961 1217T881 1256T760 1272H367ZM367 664V162H766Q814 162 852 165T938 184T1019 225T1073 300T1096 416Q1096 548 1011 606T766 664H367Z" />
<glyph unicode="C" glyph-name="C" horiz-adv-x="1458" d="M1188 475H1380Q1372 406 1353 341T1288 204T1179 79T1011 -8T774 -43Q455 -43 274 152T92 692Q92 848 124 974T204 1181T321 1320T450 1408T582 1454T692 1474T768 1477Q900 1477 1003 1447T1168 1369T1274
1255T1335 1126T1362 991H1169Q1165 1028 1155 1064T1118 1148T1049 1231T934 1290T768 1315Q664 1315 582 1281T448 1190T361 1052T312 885T297 700Q297 533 354 402T523 195T782 119Q953 119 1066 219T1188 475Z" />
<glyph unicode="D" glyph-name="D" horiz-adv-x="1472" d="M174 1434H700Q734 1434 763 1433T845 1424T943 1405T1045 1367T1147 1306T1237 1216T1313 1093T1363 930T1382 721Q1382 75 813 9Q738 0 629 0H174V1434ZM367 1272V162H635Q911 162 1044 297T1178 717Q1178
843 1151 941T1077 1100T967 1201T835 1256T690 1272H367Z" />
<glyph unicode="E" glyph-name="E" horiz-adv-x="1253" d="M367 821H1118V659H367V162H1219V0H174V1434H1196V1272H367V821Z" />
<glyph unicode="F" glyph-name="F" horiz-adv-x="1163" d="M367 805H1040V643H367V0H174V1434H1137V1272H367V805Z" />
<glyph unicode="G" glyph-name="G" horiz-adv-x="1515" d="M811 748H1397V0H1247V231H1243Q1181 101 1057 29T766 -43Q659 -43 564 -19T382 64T231 209T130 430T92 731Q92 1091 279 1284T793 1477Q931 1477 1041 1438T1219 1331T1327 1183T1376 1010H1184Q1181
1052 1168 1092T1126 1173T1053 1245T942 1295T788 1315Q695 1315 619 1290T493 1226T406 1131T348 1023T316 909T300 807T297 725Q297 695 300 659T314 560T345 442T401 325T488 220T615 148T786 119Q888 119 967 151T1092 232T1169 346T1209 469T1221 586H811V748Z"
/>
<glyph unicode="H" glyph-name="H" horiz-adv-x="1454" d="M367 674V0H174V1434H367V836H1087V1434H1280V0H1087V674H367Z" />
<glyph unicode="I" glyph-name="I" horiz-adv-x="540" d="M174 1434H367V0H174V1434Z" />
<glyph unicode="J" glyph-name="J" horiz-adv-x="1064" d="M47 475H240Q241 385 252 323T291 213T367 142T487 119Q547 119 590 137T659 184T700 261T720 359T725 477V1434H918V496Q918 212 818 85T485 -43Q448 -43 415 -40T335 -27T252 2T175 54T108 133T64 247T47
401V475Z" />
<glyph unicode="K" glyph-name="K" horiz-adv-x="1366" d="M367 723L1075 1434H1335L737 844L1374 0H1118L596 715L367 492V0H174V1434H367V723Z" />
<glyph unicode="L" glyph-name="L" horiz-adv-x="1083" d="M1096 162V0H174V1434H367V162H1096Z" />
<glyph unicode="M" glyph-name="M" horiz-adv-x="1822" d="M834 0L367 1204H362L367 1149V0H174V1434H463L911 254L1360 1434H1649V0H1456V1149L1460 1204H1454L989 0H834Z" />
<glyph unicode="N" glyph-name="N" horiz-adv-x="1515" d="M367 1137V0H174V1434H387L1149 297V1434H1341V0H1130L367 1137Z" />
<glyph unicode="O" glyph-name="O" horiz-adv-x="1552" d="M92 717Q92 902 142 1047T284 1285T500 1428T776 1477Q877 1477 970 1455T1154 1377T1311 1237T1419 1020T1460 717Q1460 596 1439 494T1385 319T1302 187T1205 91T1097 27T993 -13T898 -33T824 -42T776
-43Q751 -43 727 -42T652 -34T557 -13T453 27T346 91T249 187T167 318T113 493T92 717ZM297 717Q297 663 302 611T321 497T357 384T416 282T502 197T621 141T776 119Q806 119 835 121T914 137T1007 172T1097 239T1178 345T1233 502T1255 717Q1255 846 1226 953T1140
1142T990 1269T776 1315Q686 1315 612 1290T490 1225T404 1129T348 1019T316 904T301 800T297 717Z" />
<glyph unicode="P" glyph-name="P" horiz-adv-x="1308" d="M174 1434H758Q1243 1434 1243 1022Q1243 571 739 571H367V0H174V1434ZM367 1272V733H719Q887 733 967 804T1047 1018Q1047 1149 967 1210T719 1272H367Z" />
<glyph unicode="Q" glyph-name="Q" horiz-adv-x="1552" d="M1253 127L1415 -51L1309 -152L1139 39Q1001 -43 776 -43Q661 -43 564 -17T398 53T274 158T187 287T131 430T101 576T92 717Q92 775 98 836T125 974T176 1119T260 1254T383 1369T553 1447T776 1477Q927
1477 1051 1429T1267 1287T1409 1048T1460 717Q1460 648 1454 588T1429 446T1366 281T1253 127ZM965 451L1126 268Q1192 352 1223 459T1255 717Q1255 827 1236 918T1187 1069T1113 1176T1027 1248T935 1289T850 1310T776 1315Q738 1315 701 1310T614 1289T522 1248T438
1176T365 1069T316 918T297 717Q297 665 302 614T321 501T357 388T416 285T502 199T621 141T776 119Q933 119 1014 176L854 354L965 451Z" />
<glyph unicode="R" glyph-name="R" horiz-adv-x="1394" d="M174 0V1434H809Q1284 1434 1284 1049Q1284 967 1256 893T1170 764T1038 694V688Q1085 671 1120 649T1177 599T1212 545T1232 481T1241 415T1245 342Q1246 314 1247 266T1248 200T1251 151T1257 106T1266
71T1281 34T1303 0H1100Q1064 44 1057 96T1047 303Q1046 343 1045 367T1037 427T1021 485T990 534T942 574T872 598T776 608H367V0H174ZM367 1272V770H797Q829 770 862 775T935 797T1006 840T1058 915T1079 1028Q1079 1161 997 1216T768 1272H367Z" />
<glyph unicode="S" glyph-name="S" horiz-adv-x="1343" d="M92 455H285Q280 308 391 214T694 119Q787 119 857 141T967 201T1027 285T1047 385Q1047 436 1029 476T985 541T916 586T840 617T758 637Q729 643 673 655Q459 699 373 733Q213 797 165 921Q141 983 141
1065Q141 1263 288 1370T684 1477Q812 1477 913 1444T1076 1352T1173 1220T1214 1061H1022Q1016 1117 995 1161T941 1231T875 1276T801 1301T734 1312T678 1315Q528 1315 437 1250T346 1075Q346 954 467 899Q531 869 701 837H702L703 836H704H705Q904 797 989 764Q1180
689 1231 531Q1251 468 1251 389Q1251 301 1225 231T1161 116T1064 40T958 -8T848 -32T754 -42T684 -43Q633 -43 588 -40T482 -24T372 10T271 69T183 158T121 285T92 455Z" />
<glyph unicode="T" glyph-name="T" horiz-adv-x="1177" d="M494 1272H27V1434H1151V1272H686V0H494V1272Z" />
<glyph unicode="U" glyph-name="U" horiz-adv-x="1425" d="M147 1434H340V580Q340 532 341 498T351 412T373 324T415 246T481 179T578 136T713 119Q917 119 1001 232T1085 580V1434H1278V555Q1278 434 1254 338T1194 180T1103 74T1001 8T891 -26T793 -41T713 -43Q604
-43 517 -22T372 32T271 115T205 215T168 329T151 444T147 555V1434Z" />
<glyph unicode="V" glyph-name="V" horiz-adv-x="1216" d="M608 199L1014 1434H1225L723 0H494L-8 1434H203L608 199Z" />
<glyph unicode="W" glyph-name="W" horiz-adv-x="1683" d="M842 1206L545 0H299L-82 1434H135L434 229L731 1434H952L1249 229L1548 1434H1765L1384 0H1139L842 1206Z" />
<glyph unicode="X" glyph-name="X" horiz-adv-x="1167" d="M584 870L942 1434H1182L707 733L1208 0H961L584 596L207 0H-41L461 733L-14 1434H225L584 870Z" />
<glyph unicode="Y" glyph-name="Y" horiz-adv-x="927" d="M465 770L862 1434H1092L561 598V0H369V598L-164 1434H66L465 770Z" />
<glyph unicode="Z" glyph-name="Z" horiz-adv-x="1214" d="M98 1434H1120V1280L289 162H1161V0H53V176L895 1272H98V1434Z" />
<glyph unicode="[" glyph-name="bracketleft" horiz-adv-x="757" d="M217 1434H649V1307H397V-252H649V-379H217V1434Z" />
<glyph unicode="\" glyph-name="backslash" horiz-adv-x="860" d="M860 -379H731L0 1434H129L860 -379Z" />
<glyph unicode="]" glyph-name="bracketright" horiz-adv-x="757" d="M109 1434H541V-379H109V-252H358V1307H109V1434Z" />
<glyph unicode="^" glyph-name="asciicircum" horiz-adv-x="905" d="M360 1434H545L791 987H647L453 1346L258 987H115L360 1434Z" />
<glyph unicode="_" glyph-name="underscore" horiz-adv-x="1017" d="M0 -379V-272H1018V-379H0Z" />
<glyph unicode="`" glyph-name="grave" horiz-adv-x="638" d="M303 1434L446 1163H283L86 1434H303Z" />
<glyph unicode="a" glyph-name="a" horiz-adv-x="1132" d="M285 733H113Q112 778 122 822T163 914T240 998T368 1057T555 1081Q613 1081 664 1075T774 1046T875 987T943 884T969 731L958 250Q957 213 959 195T971 157T1004 132T1067 127V0Q1034 -8 985 -8Q900
-8 857 20T799 143Q748 50 652 5T442 -41Q272 -41 174 36T76 272Q76 329 89 372T135 454T226 522T372 570T586 602Q700 611 726 620Q772 635 783 685Q788 709 788 745Q788 767 786 786T772 838T737 895T667 936T555 954Q531 954 511 953T455 945T392 925T339 887T298
825T285 733ZM784 444L788 532Q768 517 743 509T698 497T634 490T559 481Q552 480 539 478Q496 472 475 469T419 457T366 440T325 417T290 384T270 339T262 279Q262 190 318 138T463 86Q521 86 571 102T670 155T748 266T784 444Z" />
<glyph unicode="b" glyph-name="b" horiz-adv-x="1230" d="M147 1434H328V905Q369 992 460 1036T670 1081Q763 1081 838 1056T961 994T1045 901T1099 797T1127 689T1140 595T1143 522Q1143 392 1112 291T1031 128T917 28T790 -26T666 -41Q447 -41 322 143H315V0H147V1434ZM315
526Q315 409 341 321T413 184T512 110T627 86Q694 86 750 109T852 182T925 318T952 522Q952 741 864 847T637 954Q496 954 406 848T315 526Z" />
<glyph unicode="c" glyph-name="c" horiz-adv-x="1122" d="M877 371H1049Q1044 325 1033 280T991 174T913 68T785 -9T596 -41Q564 -41 535 -39T451 -25T352 8T256 71T170 172T112 322T88 528Q88 607 100 679T147 826T234 956T378 1046T584 1081Q690 1081 775 1052T914
971T1000 855T1040 715H868Q859 770 839 812T792 880T738 921T679 943T628 952T588 954Q506 954 445 921T349 829T296 695T279 528Q279 438 297 361T353 221T453 122T600 86Q659 86 706 105T784 153T835 221T865 297T877 371Z" />
<glyph unicode="d" glyph-name="d" horiz-adv-x="1226" d="M899 1434H1079V0H911V143H905Q809 -41 561 -41Q338 -41 213 113T88 522Q88 573 92 622T111 728T146 834T204 929T288 1008T405 1061T557 1081Q672 1081 756 1043T899 905V1434ZM279 522Q279 410 303
327T362 199T443 127T526 93T600 86Q662 86 715 110T814 184T885 321T911 526Q911 635 886 719T815 853T713 929T590 954Q451 954 365 847T279 522Z" />
<glyph unicode="e" glyph-name="e" horiz-adv-x="1167" d="M897 301H1069Q1059 252 1042 209T990 118T906 37T783 -19T614 -41Q508 -41 423 -14T284 52T191 149T132 256T102 365T90 454T88 516Q88 555 90 592T105 689T136 798T194 902T284 994T416 1056T596 1081Q682
1081 753 1062T872 1012T956 935T1014 842T1050 738T1069 633T1077 530Q1077 522 1078 505T1079 479H279Q280 423 290 370T326 264T388 173T481 110T608 86Q730 86 805 148T897 301ZM279 606H889Q888 653 881 696T853 788T803 872T720 930T600 954Q524 954 465
930T372 869T315 784T286 693T279 606Z" />
<glyph unicode="f" glyph-name="f" horiz-adv-x="653" d="M627 1040V913H399V0H219V913H27V1040H219V1182Q219 1316 286 1379T494 1442Q503 1442 627 1434V1307Q584 1309 500 1309Q471 1309 451 1298T421 1272T406 1234T400 1198T399 1165V1040H627Z" />
<glyph unicode="g" glyph-name="g" horiz-adv-x="1228" d="M168 -117H340Q351 -160 379 -190T448 -236T528 -259T614 -266Q672 -266 719 -251T795 -212T845 -156T877 -94T893 -31T900 21T901 57V170Q829 52 755 6T565 -41Q469 -41 387 -8T238 92T134 271T96 528Q96
554 96 573T101 636T112 715T136 798T173 883T230 959T308 1023T412 1064T547 1081Q806 1081 907 897H913V1040H1081V27Q1081 -55 1060 -122T1007 -232T929 -307T841 -355T751 -381T673 -393T614 -395Q579 -395 560 -395T494 -389T416 -375T341 -345T266 -296T209
-221T168 -117ZM606 86Q623 86 644 89T695 104T754 134T812 187T863 267T899 380T913 532Q913 730 830 842T590 954Q541 954 500 942T430 911T377 863T339 807T314 744T298 681T291 621T288 572T287 535Q287 449 300 379T335 262T387 182T445 130T507 102T562 89T606
86Z" />
<glyph unicode="h" glyph-name="h" horiz-adv-x="1171" d="M147 1434H328V895Q399 992 485 1036T684 1081Q740 1081 787 1070T867 1043T926 999T968 948T996 889T1013 832T1021 775T1024 729T1024 692V0H844V637Q844 640 844 646Q844 671 844 684T843 724T838
767T830 807T817 846T798 880T770 910T733 933T686 949T627 954Q598 954 570 949T506 931T440 890T384 822T343 716T328 567V0H147V1434Z" />
<glyph unicode="i" glyph-name="i" horiz-adv-x="466" d="M143 1040H324V0H143V1040ZM143 1245V1434H324V1245H143Z" />
<glyph unicode="j" glyph-name="j" horiz-adv-x="473" d="M150 1040H330V-96Q330 -243 276 -315T84 -387Q67 -387 -33 -379V-252Q17 -243 44 -238T95 -222T128 -205T143 -178T149 -142T150 -90Q150 -79 150 -74V1040ZM150 1245V1434H330V1245H150Z" />
<glyph unicode="k" glyph-name="k" horiz-adv-x="1071" d="M328 545L823 1040H1038L629 639L1079 0H870L504 528L328 354V0H147V1434H328V545Z" />
<glyph unicode="l" glyph-name="l" horiz-adv-x="475" d="M147 1434H328V0H147V1434Z" />
<glyph unicode="m" glyph-name="m" horiz-adv-x="1785" d="M147 1040H328V899L326 887Q367 975 457 1028T647 1081Q772 1081 845 1017T944 858Q963 895 988 928T1056 998T1163 1058T1305 1081Q1370 1081 1423 1064T1510 1021T1569 956T1607 882T1627 803T1636
731T1638 672V0H1458V659Q1458 687 1457 710T1451 765T1438 822T1415 872T1379 915T1327 943T1257 954T1182 946T1109 914T1045 854T1001 758T983 621V0H803V657Q803 954 602 954Q487 954 408 862T328 621V0H147V1040Z" />
<glyph unicode="n" glyph-name="n" horiz-adv-x="1173" d="M147 1040H328V895Q385 978 477 1029T684 1081Q1026 1081 1026 692V0H846V637Q846 669 846 678T845 721T840 769T829 814T811 859T784 895T746 927T694 946T627 954Q598 954 570 949T506 931T440 890T384
822T343 716T328 567V0H147V1040Z" />
<glyph unicode="o" glyph-name="o" horiz-adv-x="1200" d="M88 434T88 520T104 685T159 837T255 963T401 1049T600 1081T798 1049T944 964T1040 837T1095 685T1112 520T1096 356T1041 204T945 77T799 -9T600 -41T402 -9T256 76T160 203T105 355ZM279 608T279 522T293
367T328 254T381 176T440 127T502 100T556 88T600 86T643 88T698 100T761 126T820 176T872 253T908 367T922 522T908 677T873 790T820 868T761 917T699 944T644 956T600 958T557 956T502 944T440 918T381 868T329 791T293 677Z" />
<glyph unicode="p" glyph-name="p" horiz-adv-x="1222" d="M147 1040H315V897H322Q445 1081 666 1081Q764 1081 847 1048T996 948T1098 772T1135 520Q1135 402 1109 307T1040 147T936 40T810 -22T670 -41Q651 -41 627 -39T559 -26T476 4T396 61T328 150V-379H147V1040ZM315
516Q315 402 345 315T425 180T528 109T637 86Q683 86 725 99T807 143T878 223T926 348T944 520Q944 721 861 837T627 954Q592 954 558 947T477 913T397 841T339 712T315 516Z" />
<glyph unicode="q" glyph-name="q" horiz-adv-x="1224" d="M909 1040H1077V-379H897V147Q796 -41 555 -41Q473 -41 405 -20T290 35T206 118T148 216T112 322T93 426T88 520Q88 636 117 736T204 914T353 1036T561 1081Q680 1081 766 1030T903 897H909V1040ZM279
520Q279 401 306 313T379 178T477 108T590 86Q633 86 676 99T761 145T836 224T889 347T909 516Q909 616 891 694T842 820T771 899T688 942T600 954Q534 954 479 930T377 857T305 721T279 520Z" />
<glyph unicode="r" glyph-name="r" horiz-adv-x="755" d="M729 1081V954Q537 945 440 863T330 590Q328 553 328 479V0H147V1040H328V840H332Q369 950 464 1012T676 1079L729 1081Z" />
<glyph unicode="s" glyph-name="s" horiz-adv-x="1036" d="M74 309H254Q256 230 299 178T403 106T537 86Q605 86 654 103T725 142T760 196T774 245T776 283Q776 313 770 332T744 375T678 418T557 455L446 479Q394 490 360 500T284 526T216 564T165 615T130 687T119
782Q119 849 142 902T204 988T294 1042T400 1072T514 1081Q615 1081 692 1059T813 1004T885 927T923 845T936 768H764Q762 796 753 823T719 882T644 934T520 954Q509 954 501 954T468 950T426 942T383 924T343 896T316 852T305 791Q305 769 309 751T320 718T339
690T362 669T392 652T425 638T464 627T504 617T548 607T592 598Q647 586 680 578T758 555T828 526T883 489T927 440T953 377T963 295Q963 228 941 174T887 85T809 26T724 -12T640 -31T574 -40T535 -41Q314 -41 197 58T74 309Z" />
<glyph unicode="t" glyph-name="t" horiz-adv-x="655" d="M27 1040H213V1352H393V1040H614V913H393V252Q393 179 403 156Q422 109 502 109Q553 109 614 127V0Q521 -41 426 -41Q391 -41 362 -36T313 -22T276 1T249 29T231 64T221 99T215 139T213 177T213 215V913H27V1040Z" />
<glyph unicode="u" glyph-name="u" horiz-adv-x="1173" d="M1026 0H846V147H842Q817 104 783 70T711 17T641 -15T573 -33T522 -39T489 -41Q147 -41 147 350V1040H328V403Q328 308 343 244T390 146T458 99T547 86Q609 86 658 104T739 149T792 216T824 288T839 365T845
427T846 473V1040H1026V0Z" />
<glyph unicode="v" glyph-name="v" horiz-adv-x="962" d="M481 180L776 1040H971L586 0H377L-8 1040H186L481 180Z" />
<glyph unicode="w" glyph-name="w" horiz-adv-x="1474" d="M737 834L520 0H328L-8 1040H178L432 207L649 1040H825L1042 207L1296 1040H1483L1147 0H954L737 834Z" />
<glyph unicode="x" glyph-name="x" horiz-adv-x="991" d="M496 655L762 1040H963L598 543L991 0H791L496 428L201 0H0L393 543L29 1040H229L496 655Z" />
<glyph unicode="y" glyph-name="y" horiz-adv-x="1019" d="M186 -377V-244Q254 -254 276 -254Q307 -254 331 -244T371 -220T400 -180T421 -133T440 -78L465 0L14 1040H229L563 199L840 1040H1020L606 -123Q604 -128 596 -154T584 -189T570 -223T552 -259T532 -292T505
-323T474 -348T435 -370T389 -382T334 -387Q232 -387 186 -377Z" />
<glyph unicode="z" glyph-name="z" horiz-adv-x="958" d="M96 1040H874V913L270 127H905V0H53V127L676 913H96V1040Z" />
<glyph unicode="{" glyph-name="braceleft" horiz-adv-x="749" d="M154 459V594Q178 597 199 604T246 630T291 677T323 756T336 870Q336 907 332 981T328 1090Q328 1413 647 1434V1325Q504 1295 504 1130Q504 1078 510 1022Q516 964 516 905Q516 764 460 675T279
528V524Q403 468 459 378T516 147Q516 90 510 31Q504 -25 504 -78Q504 -242 647 -272V-381Q328 -360 328 -37Q328 -2 332 72T336 182Q336 262 318 318T270 403T212 443T154 459Z" />
<glyph unicode="|" glyph-name="bar" horiz-adv-x="978" d="M426 -459V1698H553V-459H426Z" />
<glyph unicode="}" glyph-name="braceright" horiz-adv-x="749" d="M596 594V459Q572 456 551 449T503 423T459 375T427 297T414 182Q414 146 418 72T422 -37Q422 -360 102 -381V-272Q246 -242 246 -78Q246 -24 240 31Q233 99 233 147Q233 289 289 378T471 524V528Q346
585 290 674T233 905Q233 954 240 1022Q246 1077 246 1130Q246 1295 102 1325V1434Q422 1413 422 1090Q422 1055 418 981T414 870Q414 791 432 734T480 650T538 610T596 594Z" />
<glyph unicode="~" glyph-name="asciitilde" horiz-adv-x="1228" d="M182 590L102 623Q119 669 141 709T196 792T275 860T375 885Q464 885 553 838L764 725Q766 723 780 717T820 705T870 698Q888 698 907 704T952 727T1002 779T1047 864L1126 831Q1109 785 1087
745T1033 662T954 594T854 569Q765 569 676 616L465 729Q409 756 356 756Q299 756 252 708T182 590Z" />
</font>
</defs>
</svg>
